# xmcd
#
# Track frame offsets:
#	150
#	13397
#	22911
#	34379
#	46314
#	58864
#	70561
#	81951
#	96792
#	106659
#
# Disc length: 1594 seconds
#
# Revision: 1
# Processed by: cddbd v1.5.1PL0 Copyright (c) Steve Scherf et al.
# Submitted via: audiograbber 1.83.01
#
DISCID=7a06380a
DTITLE=Various Artist - Number 1 Country Hits (Disk Two)
DYEAR=2003
DGENRE=Classic Country
TTITLE0=Jack Greene - Statue Of A Fool
TTITLE1=David Houston - Baby, Baby (I Know You're A Lady)
TTITLE2=Lynn Anderson - You're My Man
TTITLE3=Lynn Anderson - How Can I Unlove You
TTITLE4=Faron Young - It's Four In The Morning
TTITLE5=Donna Fargo - The Happiest Girl In The Whole U.S.A.
TTITLE6=Donna Fargo - Funny Face
TTITLE7=Jeanne Pruett - Satin Sheets
TTITLE8=Lynn Anderson - What A Man My Man Is
TTITLE9=TG Sheppard - Devil In The Bottle
EXTD=
EXTT0=
EXTT1=
EXTT2=
EXTT3=
EXTT4=
EXTT5=
EXTT6=
EXTT7=
EXTT8=
EXTT9=
PLAYORDER=
